<svg xmlns="http://www.w3.org/2000/svg" viewBox="0 0 512 512" width="512" height="512">
  <defs>
    <linearGradient id="bg" x1="0%" y1="0%" x2="100%" y2="100%">
      <stop offset="0%" stop-color="#141c2b"/>
      <stop offset="100%" stop-color="#24344d"/>
    </linearGradient>
    <linearGradient id="gold" x1="0%" y1="0%" x2="100%" y2="100%">
      <stop offset="0%" stop-color="#ffe259"/>
      <stop offset="100%" stop-color="#ffa751"/>
    </linearGradient>
  </defs>
  <rect width="512" height="512" rx="110" fill="url(#bg)"/>
  <rect x="20" y="20" width="472" height="472" rx="90" fill="none" stroke="url(#gold)" stroke-width="8" opacity="0.4"/>
  <!-- Book Icon -->
  <path d="M120 180 C120 160, 240 140, 256 180 C272 140, 392 160, 392 180 L392 340 C392 340, 280 320, 256 360 C232 320, 120 340, 120 340 Z" fill="url(#gold)"/>
  <path d="M256 180 L256 360" stroke="#141c2b" stroke-width="8" stroke-linecap="round"/>
  <!-- Text -->
  <text x="256" y="425" font-family="system-ui, -apple-system, sans-serif" font-weight="900" font-size="52" fill="#ffe259" text-anchor="middle" letter-spacing="4">VOCAB</text>
  <!-- Sparkles -->
  <polygon points="150,130 155,145 170,150 155,155 150,170 145,155 130,150 145,145" fill="#ffe259"/>
  <polygon points="360,120 364,132 376,136 364,140 360,152 356,140 344,136 356,132" fill="#ffe259"/>
</svg>
